<?xml version="1.0" encoding="utf-8"?>
<!DOCTYPE svg PUBLIC "-//W3C//DTD SVG 1.0//EN" "http://www.w3.org/TR/2001/REC-SVG-20010904/DTD/svg10.dtd">
<svg version="1.0" xmlns="http://www.w3.org/2000/svg" width="2040px" height="955px" viewBox="0 0 2040 955" preserveAspectRatio="xMidYMid meet">
 <g fill="#0a0a0a">
  <path d="M0 949.20 l0 -5.83 925.46 -0.14 c837.16 0 932.65 -0.27 1001.96 -2.31 42.18 -1.22 84.77 -2.71 94.68 -3.26 l17.90 -0.81 0 8.95 0 9.09 -1020 0 -1020 0 0 -5.70z"/>
  <path d="M1264.15 927.49 c-98.88 -0.68 -405.29 -0.95 -680.90 -0.54 -275.62 0.41 -519.63 0.41 -542.28 -0.14 l-40.96 -0.81 0 -9.49 0 -9.49 102.14 0.95 c56.02 0.54 192.47 0.54 303.15 0 l201.02 -0.95 0 -5.70 c0 -8.27 3.53 -18.72 10.99 -33.10 8.95 -17.23 19.80 -32.01 34.72 -47.34 l12.48 -12.89 -16.55 0.95 c-14.38 0.68 -218.92 1.09 -550.56 0.81 l-97.39 0 0 -5.97 c0 -3.39 0.54 -7.60 1.22 -9.36 2.85 -7.19 39.34 -32.96 63.75 -44.90 12.61 -6.10 15.46 -6.92 24.55 -7.32 12.89 -0.68 14.24 0.54 14.24 12.61 0 7.73 -0.54 9.09 -6.65 18.31 l-6.51 9.90 4.48 -3.26 c7.32 -5.02 18.58 -17.23 26.59 -28.62 7.19 -10.17 7.60 -10.58 12.75 -10.58 7.19 0 10.72 2.03 10.72 6.10 0 1.90 0.27 3.39 0.68 3.39 0.41 0 4.75 -1.76 9.49 -4.07 10.58 -4.88 16.01 -5.29 18.85 -1.09 3.80 5.29 2.71 11.39 -2.31 15.19 -6.65 5.02 -18.99 8.95 -28.62 8.95 -8.14 0 -8.41 0.14 -12.34 5.56 -2.17 2.98 -7.46 8.82 -11.66 12.75 l-7.46 7.19 6.78 0.81 c3.80 0.41 17.77 0.81 30.93 0.81 22.11 0 24.28 -0.27 26.45 -2.58 1.36 -1.49 5.56 -3.39 9.22 -4.20 22.11 -5.02 48.42 -20.48 70.94 -41.91 9.22 -8.82 14.65 -10.99 22.38 -8.68 4.07 1.09 4.34 1.63 4.75 8 0.41 6.10 -0.27 7.73 -6.24 16.95 -3.53 5.43 -8.27 13.02 -10.44 16.68 l-3.80 6.51 3.26 -0.95 c15.73 -4.61 41.78 -22.38 59.55 -40.56 7.05 -7.19 7.73 -7.60 14.24 -7.60 8.41 0 10.17 1.63 10.17 8.95 0 4.48 -1.76 8.41 -8.82 20.21 -4.88 8 -8.68 14.78 -8.41 15.06 0.68 0.81 12.21 -9.22 18.58 -16.28 3.39 -3.66 9.22 -10.99 12.89 -16.28 6.38 -8.82 7.32 -9.63 12.21 -10.04 8.27 -0.68 11.53 0.54 11.53 4.61 0 3.39 0.27 3.53 4.75 2.71 2.58 -0.54 8.95 -2.71 14.11 -4.88 15.33 -6.51 23.19 -4.88 23.19 4.75 0 3.66 -0.95 5.29 -4.48 8 -7.73 5.97 -22.11 10.58 -35.27 11.39 l-11.80 0.68 -4.75 6.38 c-2.71 3.66 -8.55 9.90 -13.02 14.11 l-8.14 7.60 39.06 0 39.06 0 3.39 -5.02 c8.14 -11.94 36.62 -33.37 59.27 -44.76 10.04 -5.02 14.11 -6.24 21.70 -6.78 10.85 -0.81 14.78 0.68 17.23 6.51 l1.63 3.93 7.73 -4.88 c6.65 -4.07 8.55 -4.75 14.78 -4.34 l7.19 0.41 0.68 5.15 0.68 5.15 5.43 -5.43 c4.34 -4.61 6.24 -5.56 10.58 -5.56 8.27 0 10.44 1.76 10.44 8.95 0 5.83 -0.54 6.65 -9.90 16.01 -8.55 8.41 -23.06 20.21 -34.86 28.21 -3.26 2.17 -1.90 2.31 27.94 2.31 l31.47 0.14 3.26 -5.56 c1.76 -2.98 7.60 -10.17 12.75 -16.01 20.62 -22.92 39.20 -35.40 52.49 -35.40 10.85 0 13.16 2.31 13.16 13.16 0 7.60 -0.68 10.31 -4.88 18.31 l-4.75 9.49 4.48 -2.98 c2.44 -1.76 11.66 -10.31 20.35 -19.26 15.46 -15.46 16.14 -16.01 21.84 -16.01 3.26 0 6.51 0.68 7.46 1.63 3.26 3.26 1.90 10.99 -3.26 18.58 l-4.88 7.19 8 -5.83 c4.34 -3.26 12.75 -9.90 18.58 -15.06 8.68 -7.46 11.53 -9.22 15.33 -9.22 7.60 0 9.90 2.03 9.90 8.55 0 5.15 -0.68 6.51 -6.38 11.94 -9.77 9.22 -19.13 16.68 -34.45 26.99 l-13.97 9.49 36.76 0 36.76 0 0.68 -3.80 c1.09 -5.15 16.41 -21.57 29.70 -31.47 19.67 -14.92 39.06 -22.65 53.58 -21.43 10.31 0.95 11.94 2.98 11.94 15.06 -0.14 10.31 -2.44 16.68 -9.90 26.59 l-3.39 4.61 4.34 -2.58 c6.78 -3.93 21.16 -16.14 35.54 -29.98 11.26 -10.99 13.56 -12.61 17.63 -12.61 6.92 0.14 9.36 2.71 9.36 9.63 0 5.70 -0.54 6.65 -11.12 17.63 -6.24 6.38 -16.01 15.33 -21.70 19.80 l-10.31 8.27 50.32 0.68 c56.83 0.95 354.29 3.39 555.71 4.61 163.58 0.95 338.69 -1.09 501.59 -5.83 l31.47 -0.95 0 7.46 0 7.46 -25.36 0.95 c-54.26 2.03 -134.28 3.53 -277.11 5.02 -152.32 1.76 -156.66 1.76 -688.09 -2.98 -91.01 -0.81 -164.39 -0.95 -165.07 -0.41 -0.54 0.68 -2.31 5.29 -3.93 10.31 -6.38 19.26 -28.48 56.02 -46.25 76.50 l-8.14 9.36 253.37 1.09 c433.36 1.76 686.60 1.63 767.31 -0.14 106.34 -2.31 172.13 -4.20 183.52 -5.15 l9.77 -0.81 0 10.17 0 10.04 -24.01 0.81 c-157.61 5.83 -374.77 7.19 -751.84 4.75z m-482.19 -20.89 l10.85 -0.95 2.17 -11.12 c4.34 -21.84 20.62 -49.37 43.13 -72.84 l11.39 -11.94 -77.31 0 -77.31 0 -7.87 13.97 c-11.94 21.02 -36.89 62.80 -44.22 73.92 l-6.51 9.77 67.41 0 c37.03 0 72.30 -0.41 78.26 -0.81z m51.14 -42.86 c7.60 -10.99 10.85 -16.01 10.04 -16.01 -0.68 0 -10.31 13.43 -15.06 20.75 -4.48 7.05 -0.81 3.66 5.02 -4.75z m-591.65 -71.62 c0 -2.17 -0.27 -4.07 -0.41 -4.07 -0.27 0 -3.80 1.76 -7.87 4.07 l-7.32 4.07 7.87 0 c7.73 0 7.73 0 7.73 -4.07z m66.06 -2.31 c-0.41 -0.27 -2.44 0.54 -4.48 1.90 l-3.80 2.44 3.93 0.68 c3.26 0.54 4.20 0.27 4.48 -1.76 0.27 -1.36 0.14 -2.85 -0.14 -3.26z m-243.06 0 c0.41 -2.85 2.98 -8.95 5.56 -13.70 l4.61 -8.41 -5.83 2.85 c-5.97 2.98 -36.22 22.79 -36.22 23.74 0 0.27 6.92 0.54 15.46 0.54 l15.46 0 0.95 -5.02z m589.35 -1.36 c0 -4.34 1.36 -9.36 4.07 -14.92 2.17 -4.75 3.66 -8.55 3.12 -8.55 -1.22 0 -23.47 21.97 -26.45 26.18 l-2.58 3.66 10.85 0 10.99 0 0 -6.38z m193.42 3.39 c0.54 -1.76 5.70 -9.77 11.66 -17.90 5.83 -8.14 10.31 -15.06 9.90 -15.46 -0.41 -0.41 -5.29 1.63 -10.99 4.61 -10.44 5.29 -27.26 17.90 -35.67 26.86 l-4.75 4.88 14.38 0 c13.84 0 14.51 -0.14 15.46 -2.98z m-348.05 -23.60 c2.44 -2.44 4.34 -4.88 3.93 -5.29 -0.95 -0.81 -33.10 20.21 -34.59 22.52 -1.76 2.98 25.91 -12.61 30.65 -17.23z m38.25 4.48 c3.26 -2.71 2.98 -2.58 -13.43 6.78 -3.26 1.90 -5.83 3.66 -5.83 4.07 0 0.95 15.60 -7.87 19.26 -10.85z"/>
  <path d="M1333.32 648.35 c-471.75 -3.93 -574.02 -4.34 -945.67 -3.39 l-387.65 1.09 0 -10.04 0 -10.04 370.02 -0.41 c203.46 -0.14 464.15 0.27 579.45 0.95 115.29 0.81 309.66 2.17 432.01 2.98 262.73 1.76 540.65 -0.27 641.98 -4.88 l16.55 -0.68 0 9.90 0 10.04 -35.54 0.95 c-141.20 3.80 -450.59 5.43 -671.14 3.53z"/>
  <path d="M1327.90 613.63 c-196 -2.31 -489.25 -3.39 -869.03 -3.26 l-458.86 0 0 -9.77 0 -9.63 98.74 0.95 c54.26 0.41 232.62 0.41 396.47 0 l298 -0.95 0.54 -10.31 c1.36 -21.57 14.24 -50.59 35.81 -81.11 l2.17 -3.12 -415.87 0 -415.87 0 0 -6.78 c0 -3.66 0.54 -6.78 1.22 -6.78 0.68 0 1.63 -1.22 2.17 -2.58 0.54 -1.90 4.07 -3.80 11.39 -6.24 13.97 -4.61 38.93 -18.85 53.31 -30.52 11.53 -9.22 11.80 -9.63 19.80 -26.18 15.46 -32.01 30.11 -56.15 45.85 -75.69 l8.68 -10.72 -71.21 0 -71.21 0 0 -9.49 0 -9.36 817.63 -0.14 c449.64 0 904.84 -0.54 1011.45 -1.36 106.75 -0.68 197.49 -1.36 201.83 -1.36 l7.73 0 0 9.49 0 9.49 -5.02 0 c-2.85 0 -64.29 0.68 -136.72 1.36 -72.30 0.68 -488.98 1.36 -925.87 1.36 l-794.43 0.14 -0.54 10.44 c-0.81 13.16 -4.34 22.38 -14.92 38.52 -13.84 21.16 -36.08 45.44 -58.46 64.02 -6.10 5.02 -9.09 8.95 -13.16 17.23 -2.98 5.83 -5.43 10.99 -5.43 11.39 0 0.41 3.53 -1.09 8 -3.26 10.72 -5.56 25.36 -16.68 38.79 -29.84 10.72 -10.44 11.53 -10.99 17.36 -10.99 7.19 0 10.44 2.98 10.44 9.49 0 3.93 -1.63 6.24 -12.48 16.82 -6.92 6.78 -16.82 15.46 -21.84 19.13 l-9.36 6.78 25.64 0.41 c19.67 0.27 25.64 0 26.04 -1.36 0.95 -3.53 19.26 -19.94 30.25 -27.26 22.38 -14.78 48.42 -25.36 62.80 -25.36 11.26 0 12.89 1.36 12.89 10.17 l0 7.32 13.97 -6.65 c23.19 -11.12 36.22 -10.72 36.22 1.36 l0 5.29 7.73 -4.75 c12.21 -7.32 21.70 -10.44 31.88 -10.58 12.07 -0.14 13.97 1.63 13.97 13.29 0 7.87 -0.68 9.49 -6.24 18.85 l-6.24 10.17 4.88 -2.03 c13.43 -5.70 34.72 -19.13 51.68 -32.82 9.09 -7.32 10.85 -8.27 16.41 -8.27 7.46 0 9.36 1.76 9.36 8.27 0 4.34 -0.95 5.97 -7.60 11.94 -9.22 8.41 -21.43 17.23 -36.08 26.04 l-10.99 6.65 27.67 0 27.81 0 2.31 -3.93 c6.92 -11.80 44.76 -35.94 71.21 -45.44 10.85 -3.80 26.86 -4.88 29.84 -1.90 0.95 0.95 1.63 4.88 1.63 8.82 l0 7.05 14.51 -7.05 c12.21 -5.83 15.87 -7.05 23.74 -7.46 11.94 -0.68 14.65 1.22 14.65 10.85 0 7.87 -2.44 13.97 -8.82 22.92 l-4.61 6.51 3.53 -1.36 c10.44 -3.93 29.57 -17.36 44.35 -30.93 11.12 -10.44 15.87 -11.94 22.24 -7.46 5.15 3.53 4.07 10.31 -2.85 17.77 -6.92 7.60 -24.96 22.38 -33.10 27.13 -3.26 1.76 -5.83 3.66 -5.83 3.93 0 0.27 9.77 0.54 21.57 0.54 l21.57 0 3.12 -5.02 c4.34 -7.05 16.55 -19.80 26.18 -27.26 4.34 -3.39 14.38 -9.36 22.24 -13.43 12.34 -6.24 15.19 -7.19 22.24 -7.19 6.65 0 8.55 0.54 11.26 3.39 1.90 1.76 3.39 3.93 3.39 4.75 0 0.81 4.07 -0.68 9.09 -3.26 9.36 -5.02 17.50 -6.24 20.48 -3.26 0.95 0.95 1.63 4.20 1.63 7.46 0 5.43 -0.54 6.24 -6.10 10.31 -7.32 5.02 -17.23 8.95 -23.33 9.09 -3.66 0 -4.48 0.68 -5.83 4.61 -0.81 2.44 -3.53 8 -6.10 12.21 l-4.61 7.60 26.31 0 c22.92 0 26.31 -0.27 26.72 -2.17 0.27 -1.36 4.07 -3.39 10.44 -5.29 29.98 -9.49 69.99 -37.03 86.67 -59.68 3.26 -4.48 10.85 -16.41 16.82 -26.45 5.97 -10.04 11.53 -18.72 12.48 -19.26 2.17 -1.49 8.68 -1.36 11.80 0.27 1.90 1.09 2.58 2.85 2.58 7.73 0 5.43 -1.76 9.36 -14.38 31.47 -8 13.84 -15.46 26.59 -16.55 28.48 l-2.17 3.26 5.29 -3.53 c2.98 -1.90 8.14 -4.48 11.39 -5.70 6.10 -2.03 21.30 -2.71 24.01 -0.95 5.15 3.39 6.24 17.77 1.90 27.13 l-2.71 5.83 7.73 -5.43 c4.20 -2.98 13.70 -10.99 20.89 -17.77 11.66 -10.72 13.84 -12.21 18.18 -12.21 7.87 0 10.17 1.90 10.17 8.41 0 5.43 -0.68 6.38 -13.29 18.58 -7.19 7.19 -17.63 16.14 -23.19 19.80 l-9.90 6.78 24.69 0.41 24.69 0.27 5.97 -6.65 c11.39 -12.61 34.86 -28.08 53.85 -35.54 26.31 -10.04 57.51 -13.97 65.24 -7.87 2.98 2.31 3.53 3.80 3.53 9.90 0 7.05 -1.76 10.85 -11.53 25.91 l-2.71 3.93 9.49 -5.15 c12.89 -7.05 24.55 -15.46 37.98 -27.53 l11.39 -10.04 7.19 0.41 7.19 0.41 0.41 6.51 0.41 6.38 -10.99 10.58 c-5.97 5.83 -17.36 14.92 -25.09 20.07 l-14.24 9.36 24.55 0.41 c22.52 0.27 24.69 0.14 26.72 -2.17 1.22 -1.49 4.48 -3.39 7.05 -4.34 25.64 -9.49 62.66 -44.08 76.50 -71.48 l3.53 -7.19 6.65 0 c8.82 0 10.17 1.76 9.09 12.48 -0.41 4.75 -0.81 14.38 -0.68 21.57 0 15.33 -1.09 18.58 -10.72 31.47 -3.80 5.02 -6.38 9.09 -5.70 9.09 3.26 0 27.26 -18.18 43.13 -32.55 16.28 -14.92 18.31 -16.28 23.06 -16.28 6.65 0 8.41 1.90 8.41 9.49 0 5.97 -0.27 6.38 -13.84 19.67 -7.73 7.46 -19.13 17.36 -25.36 22.11 l-11.39 8.41 10.04 0 c5.56 0 17.90 0.41 27.40 0.95 16.55 0.81 17.36 0.68 18.04 -1.76 0.54 -2.31 2.71 -2.98 11.39 -4.34 5.83 -0.81 15.33 -3.26 20.89 -5.43 22.38 -8.68 52.49 -33.37 70.80 -57.92 l8.14 -10.85 7.32 0 7.46 0 0.41 5.97 c0.27 3.53 -0.68 9.09 -2.31 13.56 -1.49 4.48 -2.98 13.16 -3.53 20.89 -0.41 7.32 -1.76 16.14 -2.85 19.67 -0.95 3.53 -1.90 6.65 -1.90 6.78 0 1.09 21.70 -11.39 29.16 -16.68 4.48 -3.26 13.29 -10.44 19.53 -16.14 10.31 -9.36 11.80 -10.31 16.95 -10.31 7.19 0 8.95 1.76 8.95 8.95 0 5.29 -0.68 6.24 -10.44 15.60 -10.99 10.44 -22.79 19.53 -36.49 27.67 l-7.87 4.75 28.62 0 c26.59 0 28.62 -0.14 29.16 -2.44 0.54 -1.90 2.44 -2.85 7.05 -3.39 18.99 -2.58 45.03 -15.06 68.63 -32.69 13.16 -9.77 35.27 -30.65 35.27 -33.23 0 -0.95 -4.20 -1.49 -11.53 -1.49 l-11.66 0 0.41 -8.41 0.41 -8.55 17.63 -0.41 17.63 -0.41 7.60 -12.48 c7.46 -12.21 7.87 -12.48 13.29 -12.89 2.98 -0.27 6.65 0.27 8.27 1.09 3.93 2.17 3.66 10.99 -0.68 18.58 l-3.53 5.83 12.89 0 c13.97 0 14.38 0.27 14.38 8.82 0 8.82 0.14 8.82 -19.53 8.82 -9.77 0 -18.45 0.54 -19.13 1.09 -2.58 1.76 -13.16 19.13 -32.69 53.58 -2.44 4.20 -3.93 7.73 -3.12 7.73 5.70 0 34.99 -19.53 52.49 -35.13 12.34 -10.99 14.51 -12.34 19.13 -12.34 6.38 0 9.63 3.26 9.63 9.63 0 4.07 -1.36 5.97 -9.77 14.24 -11.94 11.53 -20.35 18.45 -32.96 26.72 l-9.49 6.38 27.53 0 c26.18 0 27.40 -0.14 27.40 -2.58 0 -2.17 1.76 -2.98 9.49 -4.75 24.14 -5.56 54.66 -21.30 80.98 -41.78 6.92 -5.29 9.49 -6.51 13.84 -6.51 8.68 0 9.63 0.81 9.63 8.68 -0.14 7.46 1.09 5.70 -18.85 29.16 -6.65 7.87 -6.10 7.87 9.63 0 19.13 -9.63 32.69 -18.72 48.15 -32.69 4.75 -4.20 6.78 -5.15 11.26 -5.15 8.27 0 10.85 1.90 10.85 7.73 0 5.83 -2.71 10.44 -14.24 24.41 -4.88 5.70 -8.41 10.72 -8.14 11.12 0.41 0.27 9.49 -3.80 20.07 -9.22 14.11 -7.05 24.69 -13.70 38.39 -23.87 14.38 -10.85 19.80 -14.24 22.92 -14.24 6.38 0.14 8.82 2.85 8.82 9.63 0 5.70 -0.41 6.38 -9.77 14.51 -11.39 9.77 -27.13 20.62 -41.78 28.76 l-10.17 5.56 35.27 -0.81 c19.40 -0.41 47.47 -0.95 62.39 -1.09 l27.13 -0.27 0.41 7.05 0.41 6.92 -8.55 0.81 c-26.99 2.44 -287.15 4.07 -592.88 3.93 l-335.98 -0.14 -0.54 2.85 c-0.41 1.63 -1.36 6.92 -2.17 11.66 -3.12 17.63 -16.14 46.80 -30.38 68.36 l-7.32 11.12 29.98 1.09 c16.55 0.54 194.91 1.09 396.34 1.36 346.42 0.27 458.59 -0.54 534.82 -3.93 l19.26 -0.81 0 9.49 0 9.49 -9.77 0.81 c-29.30 2.31 -190.57 3.93 -416.14 4.07 -139.84 0.27 -268.70 0.14 -286.20 0z m-303.83 -26.72 c0 -7.46 3.26 -18.31 8.41 -28.76 5.15 -10.04 26.99 -46.66 32.96 -55.07 l4.48 -6.24 -100.78 -0.27 c-80.03 -0.14 -100.91 0.14 -102 1.49 -0.81 0.95 -4.61 9.36 -8.55 18.58 -10.44 25.09 -24.96 53.31 -35.54 68.90 l-3.93 5.83 54.66 0.41 c30.11 0.14 76.23 0.41 102.54 0.68 l47.74 0.27 0 -5.83z m598.44 -109.05 c0.41 -3.66 0.54 -6.65 0.41 -6.92 -0.27 -0.27 -20.89 11.53 -22.24 12.75 -0.27 0.27 4.34 0.54 10.31 0.54 l10.99 0 0.54 -6.38z m-377.35 0 c0 -2.85 1.22 -7.19 2.85 -9.77 l2.85 -4.61 -6.65 5.43 c-3.53 2.98 -9.22 7.32 -12.48 9.63 l-5.97 4.34 9.63 0 9.77 0 0 -5.02z m547.98 2.31 c0 -2.58 -0.27 -2.71 -3.66 -0.95 -2.17 1.09 -4.75 2.31 -5.83 2.71 -1.09 0.41 0.54 0.81 3.80 0.81 4.88 0.14 5.70 -0.27 5.70 -2.58z m-1730.74 -2.85 l0 -4.07 -3.66 2.58 c-2.17 1.36 -5.02 3.26 -6.51 4.07 -2.31 1.36 -1.76 1.49 3.80 1.63 6.24 0 6.38 -0.14 6.38 -4.20z m173.21 -10.99 c5.43 -8.41 9.63 -15.33 9.49 -15.60 -0.27 -0.14 -5.56 2.17 -11.94 5.15 -12.34 5.97 -31.60 18.18 -35.67 22.79 l-2.58 2.85 15.46 -0.14 15.46 -0.14 9.77 -14.92z m46.12 12.89 c0.54 -1.36 3.80 -6.78 7.46 -12.07 3.53 -5.29 6.51 -10.17 6.51 -10.72 0 -1.49 -26.31 15.19 -35.27 22.38 l-3.39 2.71 11.94 0 c10.04 0 12.07 -0.41 12.75 -2.31z m59.41 -4.48 c0.54 -3.80 2.85 -9.90 5.43 -14.24 2.58 -4.07 4.07 -7.46 3.53 -7.46 -3.26 0 -37.84 23.33 -40.15 27.13 -0.54 0.81 5.02 1.36 14.65 1.36 l15.60 0 0.95 -6.78z m173.89 -8.14 l9.90 -14.78 -7.19 3.26 c-13.02 5.83 -41.64 23.47 -41.64 25.91 0 0.27 6.51 0.54 14.65 0.41 l14.51 -0.14 9.77 -14.65z m53.58 8.95 c0.41 -3.39 2.58 -9.09 5.02 -13.16 l4.48 -7.05 -8 4.48 c-9.22 5.15 -31.60 20.07 -31.60 21.02 0 0.41 6.65 0.68 14.78 0.68 l14.65 0 0.68 -5.97z m127.23 1.76 c0 -3.66 -0.27 -4.07 -2.17 -2.58 -1.09 1.09 -2.71 2.98 -3.39 4.34 -1.09 2.03 -0.81 2.44 2.17 2.44 2.85 0 3.39 -0.54 3.39 -4.20z m154.09 -0.81 c3.26 -2.85 5.97 -5.56 5.97 -5.97 0 -0.81 -16.55 8.41 -18.85 10.44 -0.27 0.27 1.09 0.54 3.12 0.54 2.31 0 5.97 -1.90 9.77 -5.02z m192.20 -0.68 c0.41 -3.26 0.68 -5.83 0.54 -6.10 -0.14 -0.14 -3.93 2.44 -8.27 5.83 l-8 5.97 7.46 0 7.46 0 0.81 -5.70z m-143.37 -3.93 c5.83 -2.71 23.19 -19.67 21.70 -21.16 -1.49 -1.49 -34.72 21.70 -34.72 24.28 0 1.76 5.70 0.41 13.02 -3.12z m542.01 -0.14 c3.39 -2.31 10.58 -15.19 10.58 -18.72 0 -0.95 -4.61 2.44 -10.17 7.46 -10.31 9.22 -11.39 11.12 -8.55 13.97 1.63 1.63 2.17 1.36 8.14 -2.71z m-354.15 -12.89 c3.53 -2.44 7.19 -5.43 8.14 -6.78 3.53 -4.20 -11.80 5.02 -18.58 11.39 l-6.65 6.10 5.43 -3.12 c2.98 -1.63 8.27 -5.02 11.66 -7.60z m-360.93 0.95 c4.07 -5.83 2.44 -5.02 -2.17 0.95 -2.03 2.71 -3.12 4.48 -2.17 3.93 0.81 -0.41 2.85 -2.71 4.34 -4.88z m-587.18 -85.05 c7.73 -10.85 14.92 -22.52 12.48 -20.07 -2.31 2.31 -16.01 21.43 -19.40 26.99 -5.15 8.55 -1.22 4.75 6.92 -6.92z"/>
  <path d="M75.01 296.10 l-75.01 -0.41 0 -9.63 0 -9.63 32.28 0.81 c17.63 0.41 208.07 1.22 423.06 1.63 l391.05 0.81 0 -6.92 c0 -13.02 10.85 -35.13 39.06 -78.81 l8.27 -12.89 -445.44 -0.41 -445.57 -0.27 0 -7.46 c0 -6.24 0.41 -7.46 2.44 -7.46 1.36 0 3.53 -1.76 4.75 -4.07 5.70 -9.63 41.91 -32.55 65.24 -41.37 26.04 -9.77 52.49 -13.02 59.82 -7.19 3.53 2.71 3.66 3.26 3.12 12.48 -0.54 8.55 -1.22 10.72 -6.38 18.99 -3.12 5.02 -5.56 9.49 -5.29 9.77 0.81 0.81 18.99 -10.44 29.30 -18.18 5.56 -4.20 14.24 -11.39 19.40 -16.14 7.46 -6.78 10.31 -8.55 13.84 -8.55 6.78 0 10.44 3.26 10.44 9.22 0 4.48 -1.09 6.10 -9.77 14.65 -11.66 11.26 -23.47 21.02 -31.74 25.77 -3.26 1.90 -5.97 3.80 -5.97 4.07 0 0.27 7.87 0.54 17.50 0.54 15.60 0 17.50 -0.27 18.04 -2.44 0.54 -1.63 4.75 -3.80 14.11 -6.78 15.60 -5.15 33.23 -14.38 48.97 -25.64 21.02 -14.92 23.33 -17.90 39.74 -50.46 15.46 -30.79 28.76 -54.12 35.81 -63.07 l4.07 -5.29 -165.07 0.95 -165.07 0.95 0 -6.92 0 -6.78 1020 0 1020 0 0 6.92 0 7.05 -67.01 -0.95 -66.87 -1.09 -0.81 7.19 c-2.03 16.68 -23.60 51 -49.51 78.67 l-8.14 8.82 8.14 -4.07 c6.65 -3.26 9.90 -4.07 17.63 -4.07 8.41 -0.14 9.77 0.27 12.07 3.12 3.12 3.80 3.39 11.80 0.68 18.18 -1.63 4.07 -13.43 15.87 -15.87 15.87 -1.22 0 -12.48 17.63 -11.80 18.45 0.41 0.27 5.43 -2.03 11.26 -5.02 12.07 -6.10 30.79 -19.40 44.22 -31.33 8 -7.05 9.49 -7.87 14.92 -7.87 7.60 0 9.36 1.76 9.36 8.95 0 5.56 -0.54 6.24 -10.58 15.19 -12.34 10.85 -23.74 19.40 -34.05 25.64 l-7.46 4.48 76.23 0 76.23 0 0 7.46 0 7.46 -195.32 0 -195.45 0 -2.31 4.20 c-13.02 23.60 -39.06 62.53 -55.61 83.15 l-8.68 10.72 228.96 -0.54 229.09 -0.54 -0.27 8.55 c-0.14 4.75 -0.54 8.95 -0.95 9.36 -1.90 2.03 -1626.17 3.80 -1963.09 2.17z m932.92 -25.50 c1.90 -19.53 19.80 -48.42 48.56 -78.40 l11.39 -11.80 -73.11 0.27 -73.11 0.41 -0.81 6.10 c-2.85 18.72 -20.35 59.68 -34.72 81.25 -3.39 4.88 -6.38 9.36 -6.65 9.90 -0.41 0.68 28.21 0.95 63.48 0.68 l64.16 -0.27 0.81 -8.14z m529.80 6.65 l12.34 -0.95 0.54 -8.55 c1.09 -17.36 20.62 -48.83 46.93 -75.69 l13.16 -13.29 -184.47 0.81 c-101.46 0.41 -215.53 0.81 -253.64 0.81 l-69.18 0 -4.34 8.55 c-13.43 25.64 -41.51 70.94 -52.76 84.77 l-3.66 4.34 241.44 0 c132.79 0 247 -0.41 253.64 -0.81z m-1477.78 -119.50 c0.27 -4.34 0.54 -8 0.41 -8.14 -0.27 -0.54 -18.85 11.94 -21.02 13.97 -1.63 1.63 -0.54 1.90 9.09 1.90 l10.99 0 0.54 -7.73z m195.32 2.03 c0.41 -3.26 0.54 -5.97 0.41 -6.24 -0.14 -0.14 -4.75 2.44 -10.31 5.83 l-9.90 6.10 9.63 0 9.63 0 0.54 -5.70z m96.98 -3.66 c29.57 -28.35 89.93 -53.85 102 -43 4.07 3.80 4.07 19.13 0 24.41 -2.58 3.26 -3.66 3.66 -9.90 3.26 -6.51 -0.41 -6.92 -0.68 -7.60 -4.34 l-0.68 -3.93 -7.19 7.87 c-7.19 7.73 -11.94 15.19 -10.58 16.55 1.49 1.63 12.34 -1.49 22.79 -6.65 13.84 -6.65 28.08 -16.14 42.59 -28.48 9.63 -8.14 11.66 -9.22 16.55 -9.22 6.92 0 9.77 2.71 9.77 9.49 0 4.75 -0.81 5.83 -9.49 13.43 -10.85 9.36 -23.19 18.31 -34.72 25.23 l-7.87 4.75 22.38 0 22.52 0 12.75 -12.61 c23.60 -23.19 60.36 -43.40 83.01 -45.57 l9.22 -0.81 15.19 -26.45 15.19 -26.45 6.65 -0.41 c3.53 -0.27 7.32 0.27 8.41 1.22 2.31 1.90 2.44 9.77 0.41 13.84 -2.44 4.61 -32.01 57.10 -40.83 72.02 -4.34 7.46 -7.60 13.84 -7.19 14.11 2.17 2.17 34.32 -21.57 47.47 -34.86 7.60 -7.73 8.41 -8.27 14.24 -8.27 3.39 0 6.92 0.68 7.87 1.63 2.44 2.44 2.03 11.80 -0.81 15.33 -4.61 5.83 -25.23 24.01 -34.72 30.65 l-9.36 6.65 23.87 0 c23.74 0 23.87 0 24.28 -2.98 0.41 -2.85 1.22 -3.12 13.02 -4.07 14.51 -0.95 23.33 -2.85 34.72 -7.46 10.44 -4.34 10.85 -4.61 12.89 -11.53 4.34 -14.65 17.09 -29.98 26.45 -31.60 5.15 -1.09 11.26 0 13.97 2.31 1.09 0.95 1.76 5.02 1.76 11.12 0 8.55 -0.54 10.58 -4.07 16.28 -2.31 3.53 -7.19 9.49 -10.85 13.16 -3.66 3.66 -6.38 6.65 -5.97 6.65 2.03 0 19.67 -7.73 25.64 -11.26 10.72 -6.24 23.60 -15.73 34.86 -25.64 8.95 -7.87 11.12 -9.22 15.46 -9.22 10.99 0 13.56 9.63 5.02 18.99 -6.51 7.32 -23.06 20.62 -35.67 28.76 l-10.17 6.51 27.53 0 c22.65 0 27.40 -0.27 27.40 -1.90 0 -1.22 3.53 -2.98 9.22 -4.75 20.07 -6.10 46.52 -21.70 64.29 -37.98 7.73 -7.05 10.04 -10.72 24.01 -36.76 14.38 -27.13 33.64 -58.87 41.64 -68.90 l3.66 -4.34 -197.22 0 c-108.51 0 -250.80 0.41 -316.17 0.95 l-119.09 0.81 0 5.02 c0 14.65 -18.99 49.37 -43.27 79.08 -9.09 11.12 -9.36 11.80 -6.10 11.80 4.88 0 8.68 2.31 8.68 5.43 0 3.39 0.27 3.39 6.78 0 2.98 -1.49 7.73 -2.71 10.72 -2.71 6.24 0 8.27 2.44 8.27 9.90 0 3.93 -0.95 5.29 -5.29 8.27 -5.70 3.93 -16.01 7.60 -21.70 7.60 -2.85 0.14 -4.34 1.63 -8.27 8.41 -2.58 4.48 -7.05 10.85 -9.90 14.11 l-5.29 5.97 23.60 0 23.47 0 9.77 -9.36z m45.44 0.95 c0.27 -4.75 0.41 -8.68 0.41 -8.82 -0.27 -0.54 -19.94 13.02 -22.38 15.33 -1.63 1.63 -0.41 1.90 9.77 1.90 l11.66 0 0.54 -8.41z m147.98 2.71 c0.41 -3.26 0.68 -5.97 0.41 -6.10 -0.14 -0.14 -3.26 2.31 -7.05 5.70 l-6.65 5.97 6.24 0.14 6.24 0 0.81 -5.70z m359.03 2.85 c1.49 -2.71 1.49 -2.71 -2.98 -0.41 -5.97 2.98 -6.10 3.26 -2.03 3.26 2.17 0 4.07 -1.09 5.02 -2.85z m109.73 -0.27 c1.76 -4.75 18.31 -19.40 31.33 -27.94 25.77 -16.95 51 -26.04 74.87 -26.99 17.23 -0.54 18.72 0.14 18.72 10.31 0 6.51 -0.81 9.22 -4.61 15.60 l-4.75 7.73 11.80 -8.14 c6.51 -4.48 16.28 -12.07 21.70 -16.95 8.27 -7.32 10.72 -8.82 14.65 -8.82 7.73 0 10.04 1.90 10.04 8.55 0 5.15 -0.68 6.51 -6.38 11.94 -12.89 12.21 -28.35 23.60 -45.17 32.96 l-8.82 4.88 29.84 -0.41 c28.76 -0.27 29.84 -0.41 30.25 -2.98 0.27 -2.03 2.71 -3.66 8.82 -5.97 16.55 -6.38 48.29 -26.72 66.06 -42.32 10.85 -9.49 11.26 -10.17 20.89 -30.25 12.21 -25.36 23.19 -45.44 33.50 -60.77 l7.87 -11.94 -151.78 0 -151.91 0 0 5.43 c0 14.51 -20.35 52.22 -42.59 78.67 -5.29 6.38 -14.11 16.41 -19.80 22.52 -8.41 8.95 -26.31 35.40 -25.09 36.89 1.76 1.90 37.44 -24.41 48.02 -35.54 5.02 -5.15 9.90 -6.24 15.19 -3.53 2.03 1.09 2.58 2.85 2.58 8 0 6.24 -0.27 6.78 -9.77 15.87 -10.44 10.04 -27.53 24.01 -30.93 25.36 -1.09 0.41 10.58 0.81 26.18 0.81 28.08 0.14 28.21 0.14 29.30 -2.98z m46.25 -3.53 c0 -3.66 0.41 -7.73 0.95 -9.09 0.95 -2.71 -8.14 3.39 -17.09 11.26 l-4.88 4.34 10.58 0.14 10.44 0 0 -6.65z m182.30 5.83 c1.22 -0.41 2.17 -2.03 2.17 -3.53 0 -1.36 0.95 -4.34 2.03 -6.51 2.03 -3.93 1.76 -3.80 -9.09 2.71 -6.10 3.80 -11.39 7.05 -11.66 7.46 -1.09 0.95 13.97 0.81 16.55 -0.14z m44.35 -0.54 l6.65 0 0 -5.97 c0 -4.20 1.36 -8.68 4.75 -15.19 2.58 -5.02 4.75 -9.36 4.75 -9.63 0 -2.71 -31.33 24.69 -34.18 29.84 -1.36 2.58 -1.09 2.71 5.02 1.90 3.53 -0.54 9.49 -0.95 13.02 -0.95z m112.44 -2.44 c0 -1.90 2.17 -2.98 10.58 -4.88 20.75 -4.75 50.05 -21.70 70.13 -40.42 l10.04 -9.36 7.87 0.41 7.87 0.41 0.41 6.51 c0.41 5.56 -0.27 7.60 -5.02 14.92 -11.39 17.63 -14.78 23.33 -14.38 23.87 2.17 2.17 37.84 -20.62 53.85 -34.32 9.36 -8.14 10.85 -8.95 16.28 -8.95 7.46 0 9.22 1.76 9.22 9.09 0 5.43 -0.41 6.10 -10.17 14.38 -10.44 8.95 -29.16 22.52 -38.11 27.67 l-5.29 2.98 29.30 0.14 c28.21 0 29.43 -0.14 30.11 -2.71 0.54 -1.90 1.90 -2.71 4.61 -2.71 6.51 0 23.47 -5.29 34.99 -10.85 14.24 -6.92 32.82 -19.40 47.47 -31.88 9.77 -8.41 12.61 -10.17 16.55 -10.17 7.60 0 9.90 2.03 9.90 8.55 0 4.34 -1.22 7.46 -4.88 12.89 -2.71 4.07 -4.61 7.46 -4.34 7.87 0.81 0.68 21.02 -12.75 31.47 -20.89 7.87 -6.24 9.63 -7.05 15.46 -7.05 7.87 0 9.77 1.63 9.77 8.27 0 4.48 -0.81 5.83 -8.41 12.21 -11.12 9.36 -28.08 20.35 -45.03 29.30 l-13.70 7.19 36.22 0 36.22 0 0.41 -2.98 c0.27 -2.17 3.39 -4.61 11.26 -8.95 15.46 -8.55 42.73 -26.99 56.97 -38.52 l12.21 -9.90 13.29 -25.77 c14.38 -27.81 24.82 -45.30 35.13 -58.73 l6.51 -8.41 -259.61 0 -259.61 0 -0.54 7.87 c-1.49 19.40 -21.70 52.76 -51.27 84.64 l-12.61 13.56 7.32 -3.66 c10.17 -5.29 22.24 -6.10 27.40 -2.03 3.12 2.58 3.66 3.80 3.66 10.31 0 6.10 -1.09 9.36 -6.65 20.21 -3.80 7.05 -6.24 12.89 -5.43 12.89 2.58 0 16.95 -8 26.31 -14.65 5.29 -3.66 15.06 -11.66 21.84 -17.77 11.12 -9.77 13.02 -10.99 17.77 -10.99 6.78 0 8.55 1.90 8.55 8.82 0 5.29 -0.68 6.38 -10.44 15.73 -10.72 10.31 -22.92 20.21 -31.60 25.50 l-4.75 2.85 27.53 0 c25.50 0 27.40 -0.14 27.40 -2.44z m62.66 -1.49 l0.54 -4.07 -6.10 3.53 c-3.39 2.03 -6.51 3.80 -6.78 4.07 -0.27 0.27 2.17 0.41 5.56 0.41 5.83 0 6.24 -0.27 6.78 -3.93z m329.33 1.90 c0 -1.22 1.49 -5.15 3.39 -8.82 l3.39 -6.65 -12.61 8.27 c-6.78 4.48 -12.75 8.41 -13.02 8.68 -0.27 0.27 3.80 0.54 9.09 0.54 7.87 0 9.77 -0.41 9.77 -2.03z m43.68 -4.34 c0.41 -3.66 2.03 -9.49 3.80 -13.29 1.76 -3.66 3.53 -7.32 3.93 -8.14 0.95 -2.17 -17.09 14.78 -23.06 21.57 l-5.56 6.24 10.17 0 10.04 0 0.68 -6.38z m-1732.37 -19.40 c5.83 -5.29 5.83 -5.43 1.49 -3.12 -2.58 1.36 -8 5.70 -12.21 9.63 l-7.60 7.32 6.10 -4.20 c3.39 -2.17 8.82 -6.51 12.21 -9.63z m183.93 3.80 c6.38 -8.68 15.06 -25.09 13.70 -26.31 -1.22 -1.22 -11.26 13.16 -16.41 23.47 -7.19 14.51 -6.65 15.06 2.71 2.85z m300.30 -8.82 c0 -1.09 -1.22 0 -6.78 6.10 l-6.10 6.38 6.51 -6.10 c3.53 -3.26 6.38 -6.10 6.38 -6.38z m519.49 -1.22 c0 -1.49 -2.85 0.14 -8.82 5.02 -9.77 8 -9.36 9.63 0.54 1.90 4.48 -3.53 8.27 -6.78 8.27 -6.92z"/>
  <path d="M1504.50 89.25 c-2.31 -2.31 -2.03 -10.85 0.54 -14.38 1.90 -2.71 3.12 -3.12 9.09 -2.71 l7.05 0.41 0.41 7.46 c0.41 5.83 -0.14 7.73 -1.90 9.09 -2.98 2.17 -13.02 2.31 -15.19 0.14z"/>
  <path d="M1688.97 89.25 c-2.71 -2.71 -2.03 -12.89 1.09 -16.01 3.53 -3.53 12.21 -3.66 15.33 -0.27 3.66 4.07 2.31 13.70 -2.31 16.82 -2.44 1.63 -12.34 1.22 -14.11 -0.54z"/>
 </g>
 <g fill="#fafafa">
  <path d="M47.88 947.03 l-47.88 -0.27 0 -11.94 0 -11.80 507.69 -0.54 c297.45 -0.27 636.69 0.27 819.53 1.22 350.76 1.90 513.66 0.68 684.70 -4.88 l28.08 -0.95 0 11.53 0 11.53 -17.23 0.95 c-9.63 0.54 -49.37 1.90 -88.57 3.12 -62.26 1.90 -181.89 2.17 -954.89 2.31 -485.99 0 -905.25 0 -931.43 -0.27z"/>
  <path d="M1325.86 912.85 c-78.26 -0.54 -225.30 -1.09 -326.48 -1.22 -101.32 0 -184.20 -0.41 -184.20 -0.81 0 -0.41 5.02 -6.51 11.26 -13.43 20.07 -22.65 43 -59.68 49.91 -80.57 1.63 -5.02 3.39 -9.63 3.93 -10.31 0.68 -0.68 74.06 -0.54 170.50 0.41 93.05 0.81 252.02 2.17 353.07 3.12 217.56 1.90 468.22 -0.14 607.39 -5.15 l26.04 -0.95 0 -3.26 0 -3.39 -28.08 0.81 c-166.97 5.43 -361.88 7.05 -610.10 5.02 -462.12 -3.66 -511.09 -4.07 -511.63 -4.61 -0.27 -0.41 6.10 -5.70 14.11 -11.94 16.01 -12.21 38.39 -34.32 38.39 -37.71 0 -1.22 -1.22 -2.98 -2.85 -3.93 -2.44 -1.63 -4.07 -0.54 -18.45 13.29 -18.45 17.50 -31.33 27.53 -39.47 30.79 -5.43 2.03 -5.97 2.03 -8.14 0 -2.03 -2.17 -1.76 -2.85 3.39 -10.04 13.70 -19.53 15.87 -32.15 6.24 -35.81 -8.95 -3.39 -32.15 5.70 -51.54 20.35 -13.43 10.17 -28.76 26.45 -29.84 31.60 l-0.68 3.80 -45.98 0 c-25.36 0 -45.98 -0.54 -45.98 -1.09 0 -0.68 5.83 -4.75 13.02 -9.22 23.19 -14.24 52.09 -37.71 52.09 -42.05 0 -0.95 -1.22 -2.44 -2.85 -3.26 -3.12 -1.76 -2.44 -2.17 -16.95 10.31 -11.26 9.63 -32.42 24.69 -40.96 28.89 l-5.83 2.98 1.63 -3.12 c0.81 -1.63 4.75 -7.32 8.68 -12.61 13.02 -17.63 14.78 -20.75 12.89 -23.06 -0.95 -1.09 -2.58 -2.03 -3.53 -2.03 -1.09 0 -9.36 7.46 -18.45 16.68 -15.60 15.60 -31.47 28.08 -35.81 28.08 -3.26 0 -2.17 -3.66 5.56 -18.85 8.55 -16.95 9.49 -23.06 4.07 -26.72 -4.34 -2.85 -9.90 -1.76 -19.94 3.93 -13.97 7.87 -39.06 32.28 -46.93 45.57 l-3.26 5.56 -42.05 0 c-26.45 0 -41.64 -0.54 -41.10 -1.36 0.41 -0.68 4.34 -3.12 8.55 -5.43 16.95 -8.95 51.81 -38.66 51.81 -44.08 0 -1.09 -1.49 -2.85 -3.39 -3.66 -3.12 -1.36 -4.20 -0.68 -15.87 10.58 -18.58 17.90 -39.88 32.15 -53.71 35.81 -7.32 1.90 -8.95 0.95 -6.51 -3.80 2.58 -5.02 6.51 -8.27 18.45 -15.19 14.24 -8.41 28.76 -18.18 31.74 -21.43 2.98 -3.53 2.03 -7.05 -2.17 -7.05 -1.63 0 -8.68 3.66 -15.60 8.14 -7.05 4.48 -13.02 8.14 -13.29 8.14 -0.27 0 0.14 -2.17 0.81 -4.88 1.63 -5.83 -0.95 -10.85 -6.24 -12.21 -10.99 -2.71 -43.81 14.78 -69.04 36.76 -5.97 5.29 -12.48 11.94 -14.38 14.65 l-3.39 5.02 -48.69 0 c-26.86 0 -48.29 -0.54 -47.47 -1.09 0.68 -0.54 4.61 -3.66 8.68 -6.65 8.55 -6.51 16.82 -14.65 23.33 -23.33 l4.61 -5.97 11.39 -0.27 c8.82 -0.14 13.70 -1.09 20.89 -3.93 15.33 -5.83 21.70 -12.34 14.92 -14.92 -1.22 -0.41 -6.24 0.95 -11.26 3.12 -8.41 3.53 -20.62 6.92 -25.23 6.92 -1.36 0 -2.03 -1.36 -2.03 -4.07 0 -3.12 -0.68 -4.20 -3.26 -4.88 -4.48 -1.09 -4.88 -0.68 -13.43 11.39 -13.29 18.85 -36.35 38.66 -42.45 36.35 -3.53 -1.36 -2.44 -3.53 16.01 -34.86 6.10 -10.31 5.97 -13.70 -0.27 -14.51 -2.31 -0.41 -5.56 1.90 -13.43 9.63 -17.77 17.36 -37.98 31.33 -53.85 37.03 -10.04 3.66 -15.19 4.07 -16.28 1.36 -0.95 -2.44 3.80 -11.53 14.24 -27.81 4.61 -7.05 8.27 -13.97 8.27 -15.33 0 -3.12 -5.15 -5.15 -9.09 -3.66 -1.63 0.54 -6.51 4.48 -10.85 8.68 -21.16 20.48 -45.30 34.72 -68.90 41.10 -5.02 1.22 -8.95 2.85 -8.82 3.66 0.14 0.68 -0.95 1.63 -2.31 2.17 -2.44 1.09 -84.50 1.49 -84.50 0.54 0 -0.27 3.80 -3.26 8.55 -6.51 8.27 -5.83 21.84 -19.40 26.18 -26.04 1.90 -2.85 2.85 -3.12 9.22 -2.44 8.82 0.95 22.52 -3.26 29.16 -8.82 4.48 -3.66 4.48 -3.80 2.03 -6.65 l-2.58 -2.98 -8.55 4.07 c-4.61 2.17 -10.72 4.20 -13.56 4.34 -4.75 0.27 -5.02 0 -4.61 -3.39 0.27 -2.44 -0.41 -4.07 -2.31 -5.02 -4.34 -2.44 -5.02 -1.90 -11.66 7.46 -14.65 21.16 -30.25 34.99 -43.68 39.06 -5.43 1.63 -3.66 -2.98 6.65 -18.58 10.17 -15.46 11.94 -21.16 7.87 -26.04 -3.26 -3.93 -13.16 -1.90 -29.03 5.83 -23.33 11.26 -63.21 39.34 -63.21 44.49 0 1.09 -1.22 1.90 -2.71 1.90 -2.71 0 -2.71 -0.95 -2.71 -79.21 l0 -79.21 393.76 -0.95 c251.88 -0.54 464.02 -0.41 588.94 0.54 107.43 0.81 283.89 2.17 391.99 2.98 236.96 1.76 470.53 0.41 627.73 -3.66 l34.99 -0.95 -0.41 -5.56 -0.41 -5.43 -17.63 0.27 c-9.63 0.27 -38.66 0.95 -64.43 1.63 -25.77 0.68 -114.89 2.03 -198.03 2.85 -152.05 1.49 -174.84 1.49 -801.62 -2.85 -107.43 -0.81 -357.14 -1.09 -572.66 -0.54 l-382.23 0.95 0 -12.48 0 -12.34 323.90 -0.27 c430.52 -0.27 561.41 0.14 781.55 1.90 358.49 3.12 861.03 1.76 920.71 -2.44 l11.12 -0.81 0 -5.43 0 -5.43 -13.84 0.81 c-7.73 0.41 -49.10 1.63 -91.96 2.58 -87.22 1.76 -733.26 2.17 -829.16 0.27 l-55.20 -0.95 5.43 -5.97 c15.60 -16.95 36.62 -59.14 40.69 -82.06 0.81 -4.75 1.76 -10.04 2.17 -11.66 l0.54 -2.98 336.11 0.27 c305.32 0.14 565.61 -1.49 592.74 -3.93 7.05 -0.68 8.41 -1.22 8.41 -3.26 0 -1.36 -0.41 -2.85 -1.09 -3.26 -0.54 -0.27 -27.26 0 -59.27 0.68 -32.15 0.81 -63.48 1.22 -69.85 0.95 l-11.53 -0.41 16.95 -8.41 c19.53 -9.63 36.22 -20.35 50.86 -32.96 10.58 -9.09 11.94 -11.80 7.60 -14.51 -2.17 -1.36 -5.02 0.27 -21.16 12.48 -13.70 10.31 -23.87 16.68 -37.84 23.60 -17.09 8.55 -34.18 14.65 -35.94 13.02 -1.22 -1.22 2.44 -6.92 11.26 -17.63 5.02 -5.97 11.26 -14.11 13.97 -18.18 4.88 -6.92 5.02 -7.32 2.44 -9.09 -3.80 -2.85 -5.70 -2.31 -11.94 3.26 -10.99 9.90 -19.40 16.28 -29.43 22.24 -19.53 11.80 -38.39 20.07 -45.71 20.07 -2.98 0 -3.12 -0.14 -1.22 -3.66 1.09 -2.17 8.14 -11.12 15.60 -20.07 14.38 -17.09 16.41 -21.70 10.44 -23.19 -2.58 -0.54 -5.15 0.68 -11.94 5.97 -26.45 20.48 -56.97 36.22 -81.11 41.78 -7.73 1.76 -9.49 2.58 -9.49 4.75 0 2.44 -1.22 2.58 -20.62 2.58 -11.39 0 -28.89 0.41 -38.66 0.95 -20.89 0.95 -22.38 -0.14 -9.49 -6.51 16.01 -8.14 36.62 -23.60 51 -38.39 7.32 -7.32 7.32 -7.60 4.88 -10.31 -1.36 -1.49 -2.98 -2.71 -3.53 -2.71 -0.68 0 -7.46 5.56 -15.06 12.34 -22.38 19.94 -48.15 35.81 -61.04 37.57 -5.29 0.68 -5.43 0.54 -4.48 -2.58 2.31 -7.46 37.03 -66.73 40.69 -69.31 0.68 -0.54 9.36 -1.09 19.26 -1.09 16.14 0 17.90 -0.27 18.72 -2.58 1.90 -6.10 0 -6.92 -16.41 -6.92 l-15.46 0 6.10 -9.77 c3.39 -5.43 6.10 -10.58 6.10 -11.53 0 -1.09 -1.63 -2.58 -3.53 -3.39 -4.07 -1.90 -4.88 -1.09 -14.38 14.78 l-5.83 9.77 -17.63 0.41 -17.63 0.41 -0.41 4.48 -0.41 4.34 13.56 0 c10.85 0 13.70 0.41 13.70 1.90 0 3.12 -11.26 17.36 -19.80 24.96 -29.16 26.31 -63.61 45.30 -88.16 48.69 -4.61 0.54 -6.51 1.49 -7.05 3.39 -0.54 2.31 -2.85 2.44 -39.88 2.44 -26.45 0 -38.93 -0.41 -38.39 -1.36 0.54 -0.81 5.29 -3.66 10.58 -6.38 14.78 -7.32 32.82 -20.21 45.71 -32.55 9.90 -9.49 11.26 -11.39 10.04 -13.56 -0.81 -1.36 -2.44 -2.58 -3.53 -2.85 -1.09 -0.27 -7.46 4.61 -14.11 10.58 -19.80 18.04 -46.39 34.05 -59.68 36.22 -5.15 0.81 -5.29 0.68 -2.98 -1.76 5.83 -6.51 9.49 -18.18 10.85 -33.64 0.68 -8.27 2.44 -18.85 3.93 -23.60 1.63 -4.61 2.44 -9.36 2.03 -10.58 -1.76 -4.48 -6.78 -1.22 -14.92 9.63 -18.31 24.55 -48.42 49.24 -70.80 57.92 -5.56 2.17 -15.06 4.61 -20.89 5.43 -8.55 1.36 -10.85 2.17 -11.39 4.20 -0.54 2.44 -2.03 2.44 -37.71 1.49 -20.35 -0.41 -37.30 -1.09 -37.57 -1.36 -0.27 -0.27 2.44 -2.17 5.97 -4.20 12.61 -7.46 28.76 -20.21 42.59 -33.77 14.11 -13.84 15.73 -16.82 10.85 -19.94 -1.76 -1.09 -5.56 1.63 -19.53 14.51 -19.94 18.18 -35.67 29.70 -46.66 34.18 -7.19 2.98 -13.70 4.20 -13.70 2.44 0 -1.63 3.53 -7.05 11.94 -18.04 11.94 -15.73 13.02 -18.58 11.94 -32.28 -0.54 -7.05 -0.27 -13.43 0.81 -17.23 1.22 -4.88 1.22 -6.51 -0.14 -8.14 -3.39 -4.07 -6.65 -2.58 -10.44 5.02 -13.97 27.67 -51.68 62.66 -77.04 71.62 -2.85 1.09 -5.97 2.98 -6.78 4.34 -1.36 2.03 -4.61 2.31 -37.44 2.31 l-35.94 -0.14 4.07 -3.26 c2.31 -1.90 4.75 -3.39 5.56 -3.39 3.53 0 34.59 -22.24 44.35 -31.74 10.99 -10.72 12.61 -14.65 6.65 -15.46 -2.31 -0.41 -5.97 2.03 -13.70 8.95 -13.16 11.94 -27.94 22.52 -40.15 29.03 -10.31 5.29 -20.48 8.82 -21.84 7.46 -0.54 -0.54 1.76 -5.02 4.88 -10.04 16.82 -26.45 17.36 -28.08 11.39 -32.82 -2.71 -2.03 -5.56 -2.85 -10.85 -2.85 -9.22 0 -32.28 5.43 -46.25 10.72 -18.99 7.46 -42.45 22.92 -53.85 35.54 l-5.97 6.65 -36.49 -0.27 -36.35 -0.41 8.14 -4.34 c4.48 -2.31 12.75 -7.46 18.31 -11.39 10.85 -7.60 35.27 -30.93 35.27 -33.64 0 -0.81 -1.49 -2.17 -3.26 -3.12 -3.12 -1.36 -4.34 -0.54 -16.95 11.26 -14.24 13.16 -29.98 24.82 -40.28 29.57 -9.77 4.61 -10.99 3.66 -4.61 -3.53 6.38 -7.19 13.56 -21.02 13.56 -25.91 0 -3.53 -2.31 -8.55 -4.61 -10.04 -5.70 -3.93 -19.26 0.95 -36.76 13.02 -7.32 5.02 -13.43 8.95 -13.70 8.68 -0.54 -0.68 7.05 -14.51 28.35 -51.41 8 -13.84 14.51 -26.18 14.51 -27.40 0 -2.58 -4.20 -5.15 -6.38 -3.93 -0.81 0.54 -6.38 9.22 -12.34 19.26 -5.97 10.04 -13.56 21.97 -16.82 26.45 -16.68 22.65 -56.70 50.19 -86.67 59.68 -6.38 1.90 -10.17 3.93 -10.44 5.29 -0.41 1.90 -4.48 2.17 -35.13 2.17 l-34.59 0 6.78 -7.32 c3.66 -4.20 8.41 -11.39 10.58 -16.28 3.39 -7.87 4.34 -8.95 7.60 -8.95 8.41 0 27.13 -9.22 29.16 -14.51 0.41 -1.09 -0.14 -2.98 -1.36 -4.07 -1.90 -2.03 -2.98 -1.76 -11.39 2.58 -13.70 7.05 -16.14 7.46 -18.72 2.44 -2.31 -4.61 -5.83 -6.78 -10.58 -6.78 -4.61 0 -30.25 13.29 -39.74 20.62 -9.63 7.46 -21.84 20.21 -26.18 27.26 l-3.12 5.02 -32.42 0 c-18.04 0 -32.28 -0.54 -31.88 -1.22 0.41 -0.54 5.83 -3.93 12.07 -7.46 18.45 -10.31 47.20 -35.27 45.03 -38.79 -0.41 -0.81 -2.03 -1.90 -3.39 -2.71 -2.17 -1.22 -4.48 0.27 -14.51 9.49 -18.18 16.68 -42.05 31.60 -53.85 33.50 -7.32 1.09 -6.51 -1.63 5.15 -18.99 7.46 -10.99 9.09 -17.50 5.43 -21.43 -2.03 -2.31 -3.66 -2.71 -8.41 -2.17 -7.46 0.81 -28.89 11.12 -42.59 20.62 -6.10 4.20 -11.12 7.32 -11.39 7.19 -0.14 -0.27 2.31 -4.61 5.70 -9.77 8.82 -13.84 8 -21.16 -2.31 -21.16 -18.45 0 -77.04 33.37 -86.27 48.97 l-2.31 3.93 -38.52 0 c-25.91 0 -38.11 -0.41 -37.57 -1.36 0.54 -0.81 5.70 -3.80 11.39 -6.78 14.51 -7.19 37.03 -22.52 47.61 -32.28 7.73 -7.05 8.55 -8.27 6.92 -10.31 -2.98 -3.53 -5.70 -2.58 -16.41 6.10 -13.56 10.99 -22.65 17.09 -37.30 25.36 -17.50 9.77 -31.88 14.24 -31.88 9.90 0 -0.54 3.39 -6.65 7.60 -13.56 8.68 -14.24 10.44 -19.26 8.68 -24.01 -3.66 -9.63 -21.16 -5.29 -46.25 11.12 -4.88 3.26 -9.36 5.97 -9.90 5.97 -0.54 0 0 -1.76 1.22 -4.07 5.02 -9.63 0.95 -18.31 -8 -16.68 -6.65 1.22 -27.94 11.66 -39.20 19.26 -5.70 3.80 -10.58 6.92 -10.99 6.92 -0.41 0 1.36 -3.39 4.07 -7.60 5.97 -9.36 7.60 -17.77 3.93 -20.48 -3.80 -2.71 -9.22 -2.17 -22.52 2.31 -14.92 5.02 -28.48 11.66 -43 21.30 -10.99 7.32 -29.30 23.74 -30.25 27.26 -0.41 1.36 -8.41 1.63 -36.49 1.36 l-35.94 -0.41 9.49 -6.24 c13.70 -8.95 28.89 -21.43 38.52 -31.88 8.14 -8.55 8.41 -9.09 6.10 -11.53 -1.22 -1.36 -3.26 -2.58 -4.20 -2.58 -1.09 0 -7.05 4.88 -13.29 10.99 -20.62 20.21 -43.95 35.13 -54.66 35.13 -5.56 0 -5.43 -0.54 3.93 -19.13 5.29 -10.72 7.87 -14.24 14.38 -19.67 22.38 -18.58 44.63 -42.86 58.46 -64.02 11.26 -17.23 14.38 -25.50 14.51 -38.52 l0 -10.58 796.20 0 c437.98 0 854.52 -0.68 925.73 -1.36 71.21 -0.68 132.11 -1.36 135.37 -1.36 l5.70 0 0 -5.56 0 -5.56 -84.37 0.81 c-217.97 2.03 -728.11 2.85 -1623.59 2.31 l-326.62 -0.14 0 -158.02 c0 -104.44 0.41 -158.02 1.36 -158.02 0.81 0 1.36 2.17 1.36 4.75 l0 4.75 169.01 -0.95 169.14 -0.81 -7.05 8.68 c-9.63 11.80 -21.84 32.96 -39.47 67.82 -16.41 32.55 -18.72 35.54 -39.74 50.46 -15.73 11.26 -33.37 20.48 -48.97 25.64 -9.36 2.98 -13.56 5.15 -14.11 6.78 -0.54 2.31 -2.85 2.44 -28.35 2.44 -31.74 0 -31.47 0.14 -14.24 -9.77 17.90 -10.44 47.88 -36.89 45.85 -40.28 -0.54 -0.81 -2.17 -2.17 -3.53 -2.85 -2.17 -1.22 -4.07 0 -12.07 7.19 -21.16 19.53 -49.51 37.57 -58.73 37.57 -3.93 0 -2.44 -5.02 5.97 -18.99 4.20 -7.05 7.19 -13.70 7.46 -17.09 0.68 -4.88 0.27 -5.97 -2.98 -8.41 -5.02 -3.93 -12.34 -3.80 -29.30 0.41 -17.63 4.48 -27.81 8.41 -44.90 17.23 -16.01 8.14 -39.20 25.09 -42.73 30.93 -1.22 2.31 -3.39 4.07 -4.75 4.07 -1.76 0 -2.44 1.09 -2.44 3.39 l0 3.39 448.28 0.27 448.15 0.41 -10.99 16.95 c-30.38 46.93 -41.78 69.45 -41.78 82.88 l0 6.92 -399.05 -0.81 c-219.60 -0.41 -410.31 -1.22 -423.73 -1.63 l-24.55 -0.81 -0.95 5.02 c-0.54 2.71 -0.54 5.43 -0.14 5.97 2.17 2.03 2029.69 0.81 2031.86 -1.36 0.27 -0.27 0.68 -2.71 0.95 -5.29 l0.41 -4.75 -232.48 0.54 -232.48 0.54 10.72 -13.02 c18.58 -22.38 46.12 -62.94 60.49 -88.98 l2.31 -4.20 195.45 0 195.32 0 0 -3.39 0 -3.39 -82.33 0 c-92.78 -0.14 -85.99 0.95 -66.19 -10.72 13.02 -7.60 27.94 -18.72 40.01 -29.70 7.60 -7.05 8.55 -8.55 7.32 -10.72 -2.71 -4.48 -5.97 -3.53 -15.19 4.75 -20.07 17.77 -46.12 34.32 -60.09 37.98 -6.65 1.76 -8.55 0.54 -6.65 -4.61 2.03 -5.43 13.56 -23.60 14.92 -23.60 0.54 0 4.20 -2.71 7.87 -6.10 8.41 -7.60 11.12 -14.11 7.87 -18.99 -5.43 -8.27 -21.97 -2.85 -44.22 14.38 -6.65 5.15 -12.21 9.09 -12.21 8.68 0 -0.41 2.03 -4.88 4.61 -9.90 2.98 -5.97 7.60 -12.07 13.02 -17.36 27.94 -26.86 55.75 -68.77 57.92 -87.22 l0.81 -7.19 67.28 0.41 67.28 0.54 0.41 -4.34 c0.27 -2.44 0.95 -4.48 1.76 -4.48 0.68 0 1.22 172.26 1.22 452.90 l0 453.03 -5.70 0.68 c-6.51 0.81 -81.52 2.98 -178.09 4.88 -88.71 1.90 -360.12 2.58 -530.35 1.36z"/>
  <path d="M62.80 911.90 l-62.80 -0.41 0 -52.90 0 -52.90 309.66 0 c170.23 0 322.55 -0.41 338.55 -0.81 19.13 -0.68 28.76 -0.54 28.48 0.41 -0.27 0.68 -4.75 5.02 -10.04 9.49 -29.30 25.09 -56.29 68.63 -56.29 90.88 l0 5.83 -68.77 0 c-37.98 0 -147.03 0.27 -242.52 0.41 -95.49 0.27 -201.83 0.27 -236.28 0z"/>
  <path d="M626.65 910.95 c0 -0.41 2.98 -4.61 6.78 -9.49 3.66 -4.88 8.27 -11.80 10.31 -15.33 2.03 -3.66 9.90 -16.82 17.50 -29.57 7.60 -12.61 17.36 -29.30 21.70 -36.89 l7.87 -13.97 85.18 0 c46.93 0 85.32 0.27 85.32 0.54 0 0.27 -5.56 5.83 -12.34 12.48 -16.14 15.60 -32.28 37.16 -40.56 54.12 -6.92 13.97 -11.39 29.03 -10.04 34.05 0.68 2.71 0 2.85 -11.80 3.66 -13.84 1.09 -159.92 1.36 -159.92 0.41z"/>
  <path d="M621.77 896.57 c1.09 -5.83 10.04 -24.82 15.87 -33.64 8.14 -11.94 18.99 -24.69 21.02 -24.69 1.76 0 1.49 1.09 -1.36 5.83 -1.90 3.12 -9.09 15.33 -16.01 27.13 -6.92 11.80 -14.38 23.47 -16.41 25.77 l-3.80 4.34 0.68 -4.75z"/>
  <path d="M809.22 896.98 c1.49 -6.65 14.92 -33.37 21.02 -41.91 3.26 -4.61 10.72 -13.97 16.55 -20.75 8 -9.36 11.26 -12.34 13.84 -12.34 4.07 0 4.07 0 0.54 7.19 -12.07 23.47 -46.66 71.48 -51.54 71.48 -0.68 0 -0.95 -1.63 -0.41 -3.66z"/>
  <path d="M208.88 799.18 c0 -0.68 4.34 -3.26 9.77 -5.83 5.29 -2.58 13.29 -6.92 17.63 -9.63 4.34 -2.85 9.22 -5.15 10.58 -5.15 3.26 0 3.26 -0.27 0.54 6.10 -1.90 4.75 -1.90 7.87 0.27 13.43 0.68 1.90 -1.36 2.17 -18.99 2.17 -10.85 0 -19.80 -0.54 -19.80 -1.09z"/>
  <path d="M291.62 799.05 l-11.53 -0.81 7.46 -3.93 c4.07 -2.03 12.21 -7.19 18.04 -11.26 5.83 -4.07 10.85 -7.19 11.12 -6.92 0.27 0.27 -0.68 3.93 -2.17 8.14 -1.90 5.56 -2.17 8.68 -1.36 10.99 2.17 5.43 2.85 5.43 -21.57 3.80z"/>
  <path d="M23.74 794.03 c8.68 -7.46 34.32 -24.28 46.39 -30.25 9.77 -4.88 18.04 -7.05 18.04 -4.88 0 0.41 -2.98 4.88 -6.65 9.90 -8.55 11.80 -12.61 19.94 -12.75 25.64 l-0.14 4.48 -25.09 0 -25.23 -0.14 5.43 -4.75z"/>
  <path d="M447.61 797.69 c0 -2.44 18.58 -18.31 32.55 -27.53 19.40 -13.02 36.62 -20.62 36.62 -16.14 0 1.49 -8.27 12.61 -13.43 18.18 -1.90 2.17 -10.99 7.73 -19.94 12.61 -10.85 5.70 -16.82 9.63 -17.23 11.39 -0.54 2.31 -1.90 2.71 -9.63 2.71 -4.88 0 -8.95 -0.54 -8.95 -1.22z"/>
  <path d="M484.36 796.74 c1.49 -1.90 8.27 -5.97 9.77 -5.97 0.41 0 0.95 1.90 1.22 4.07 0.68 4.07 0.54 4.07 -6.10 4.07 -5.97 0 -6.51 -0.27 -4.88 -2.17z"/>
  <path d="M622.58 797.55 c0 -3.26 24.69 -29.16 35.81 -37.44 5.02 -3.80 9.36 -5.97 11.80 -5.97 l3.93 0 -8.14 15.60 c-8.14 15.46 -9.63 21.30 -6.78 26.59 1.36 2.44 0.81 2.58 -17.63 2.58 -11.26 0 -18.99 -0.54 -18.99 -1.36z"/>
  <path d="M808.40 797.55 c0 -2.17 20.62 -22.38 29.30 -28.76 9.90 -7.19 26.45 -15.46 33.50 -16.68 4.48 -0.95 5.02 -0.68 5.02 1.90 0 4.34 -3.26 10.04 -14.24 25.23 -5.43 7.46 -10.17 14.92 -10.72 16.68 -0.95 2.98 -1.36 2.98 -21.97 2.98 -12.34 0 -20.89 -0.54 -20.89 -1.36z"/>
  <path d="M62.12 595.86 l-62.12 -0.41 0 -51.95 0 -51.81 421.29 0.41 c336.25 0.27 421.02 0.68 420.07 2.03 -17.23 22.11 -25.36 34.99 -32.55 51.68 -6.78 15.87 -11.26 32.42 -11.26 41.64 l0 8 -120.31 0 c-66.33 0 -217.84 0.27 -336.79 0.41 -118.95 0.27 -244.28 0.27 -278.33 0z"/>
  <path d="M866.32 595.86 l-58.05 -0.41 4.48 -5.29 c9.49 -11.26 30.11 -49.24 41.78 -77.45 3.93 -9.36 7.73 -17.77 8.55 -18.72 0.95 -1.36 23.60 -1.63 107.56 -1.49 58.46 0.14 106.61 0.54 107.02 1.22 0.27 0.54 -2.31 5.15 -5.97 10.31 -8 11.39 -29.43 46.93 -35.13 58.32 -5.70 11.26 -8.82 22.92 -8 29.16 l0.68 5.29 -52.36 -0.27 c-28.89 -0.27 -78.67 -0.54 -110.55 -0.68z"/>
  <path d="M1038.85 587.72 c-0.54 -3.80 0.95 -9.22 5.43 -18.72 8.95 -19.26 36.62 -64.43 39.34 -64.43 4.61 0 -12.75 42.05 -26.31 63.89 -7.46 11.94 -17.90 22.92 -18.45 19.26z"/>
  <path d="M807.73 577.14 c3.12 -18.85 30.93 -70.53 36.89 -68.36 2.58 0.95 -27.81 61.58 -35.54 71.07 -2.03 2.58 -2.17 2.44 -1.36 -2.71z"/>
  <path d="M0 407.46 l0 -80.57 77.31 0 c42.59 0 77.31 0.27 77.31 0.68 0 0.27 -2.85 3.26 -6.24 6.38 -15.06 13.84 -38.93 51 -56.83 88.30 -7.60 15.60 -7.87 16.14 -19.26 25.36 -14.51 11.66 -39.47 25.91 -53.44 30.52 -7.05 2.44 -10.85 4.34 -11.39 6.10 -0.41 1.36 -2.31 2.71 -4.07 3.12 l-3.39 0.54 0 -80.43z"/>
  <path d="M1391.65 487.08 c0 -1.09 23.19 -14.24 23.60 -13.43 0.14 0.27 1.09 3.26 2.31 6.78 l2.17 6.24 -4.07 0.81 c-6.24 1.22 -24.01 0.95 -24.01 -0.41z"/>
  <path d="M1584.26 486.40 c1.09 -1.09 6.92 -4.48 12.89 -7.60 5.97 -3.12 15.73 -8.95 21.84 -13.02 5.97 -4.07 12.21 -7.32 13.84 -7.32 2.71 0 2.71 0.41 -1.76 9.77 -2.85 5.83 -4.75 11.94 -4.75 14.92 l0 5.15 -21.97 0 c-18.99 0 -21.70 -0.27 -20.07 -1.90z"/>
  <path d="M1211.93 484.77 c1.49 -1.09 7.46 -5.02 13.43 -8.95 11.26 -7.32 32.15 -26.59 40.15 -36.89 5.29 -6.92 9.49 -8.14 9.49 -2.98 0 3.12 -4.07 9.49 -19.67 31.74 -4.75 6.65 -6.10 9.77 -6.10 13.97 l0 5.29 -19.94 0 c-18.04 -0.14 -19.80 -0.27 -17.36 -2.17z"/>
  <path d="M1764.65 485.04 c1.09 -1.09 5.97 -3.53 10.85 -5.56 4.88 -2.03 11.39 -5.15 14.51 -6.92 3.12 -1.76 7.19 -3.26 8.95 -3.26 l3.39 0 -2.71 5.15 c-1.49 2.98 -2.31 6.51 -1.90 8.82 l0.81 3.66 -17.90 0 c-15.46 0 -17.63 -0.27 -16.01 -1.90z"/>
  <path d="M34.59 484.36 c0.41 -0.81 4.20 -3.26 8.55 -5.70 4.20 -2.44 11.26 -6.78 15.46 -9.63 4.20 -2.85 8.95 -5.15 10.44 -5.15 2.71 0 2.71 0 0.14 5.83 -1.49 3.12 -2.71 8 -2.71 10.85 l0 5.02 -16.41 0 c-9.77 0 -16.01 -0.54 -15.46 -1.22z"/>
  <path d="M183.38 484.50 c1.09 -2.98 19.67 -17.90 29.16 -23.74 14.92 -8.95 37.44 -18.85 41.91 -18.31 3.53 0.41 3.26 0.81 -10.44 21.70 l-14.11 21.16 -23.47 0.14 c-13.02 0.14 -23.33 -0.41 -23.06 -0.95z"/>
  <path d="M244.15 485.04 c0 -0.41 5.02 -4.61 11.26 -9.49 18.18 -14.11 43.81 -29.30 49.78 -29.30 1.49 0 2.71 0.41 2.71 0.81 0 1.49 -3.26 6.78 -12.21 20.21 -4.88 7.46 -9.36 14.65 -9.90 16.01 -0.81 2.03 -3.12 2.31 -21.30 2.31 -11.12 0 -20.35 -0.27 -20.35 -0.54z"/>
  <path d="M298.40 484.36 c0 -2.31 16.14 -16.14 27.40 -23.60 18.99 -12.48 36.35 -20.21 36.35 -16.14 0 0.54 -3.66 7.05 -8.14 14.38 -7.73 12.75 -8.95 16.28 -8.27 23.60 l0.27 2.98 -23.87 0 c-13.02 0 -23.74 -0.54 -23.74 -1.22z"/>
  <path d="M468.09 480.70 c9.77 -10.31 30.79 -23.47 51.68 -32.28 19.53 -8.41 19.80 -7.46 3.93 15.33 -7.60 10.85 -13.70 20.07 -13.70 20.75 0 0.54 -10.44 1.09 -23.33 1.09 l-23.33 0 4.75 -4.88z"/>
  <path d="M526.95 482.06 c14.92 -12.48 54.12 -35.81 60.36 -35.81 3.80 0 3.53 1.22 -2.98 10.31 -8.27 11.80 -11.94 19.40 -11.94 24.41 l0 4.61 -24.69 0 -24.82 -0.14 4.07 -3.39z"/>
  <path d="M679.55 484.36 c0 -0.68 2.71 -4.61 6.10 -8.68 9.36 -11.53 21.84 -20.35 18.99 -13.43 -3.53 8.68 -5.02 14.51 -4.48 18.58 l0.54 4.75 -10.58 0 c-5.83 0 -10.58 -0.54 -10.58 -1.22z"/>
  <path d="M819.80 484.36 c0.54 -0.68 6.10 -4.07 12.75 -7.60 6.51 -3.53 17.36 -10.31 24.14 -15.06 6.92 -4.75 13.43 -8.68 14.51 -8.68 3.39 0 -6.78 17.09 -15.19 25.36 l-7.46 7.19 -14.65 0 c-8.55 0 -14.51 -0.54 -14.11 -1.22z"/>
  <path d="M1016.74 482.74 c8 -8.95 37.98 -28.35 43.68 -28.35 3.12 0 2.85 0.54 -3.66 7.46 -7.87 8.27 -11.53 15.73 -10.44 20.48 l0.81 3.26 -16.41 0 -16.55 0 2.58 -2.85z"/>
  <path d="M1831.39 484.91 c1.49 -1.63 25.91 -12.89 27.67 -12.89 1.49 0 1.63 0.54 0.54 2.58 -0.68 1.49 -1.36 4.48 -1.36 6.78 l0 4.20 -13.84 0 c-7.60 0 -13.43 -0.27 -13.02 -0.68z"/>
  <path d="M879.34 478.80 c-1.76 -0.68 -3.12 -2.17 -3.12 -3.12 0 -3.53 39.34 -31.06 47.20 -33.10 15.73 -3.93 -8 29.57 -24.96 35.40 -7.05 2.44 -14.38 2.71 -19.13 0.81z"/>
  <path d="M1427.73 477.18 c-4.61 -6.51 -3.12 -9.09 13.43 -24.69 8.68 -8.14 16.01 -14.38 16.41 -13.97 1.63 1.49 -2.44 20.62 -5.70 27.53 -5.83 12.34 -19.13 18.45 -24.14 11.12z"/>
  <path d="M710.74 475.41 c0 -4.48 4.48 -13.29 10.44 -20.62 3.80 -4.75 5.43 -5.83 9.22 -5.83 2.58 0 5.02 0.54 5.43 1.36 1.90 2.98 -9.36 19.40 -17.23 25.36 -5.56 4.07 -7.87 3.93 -7.87 -0.27z"/>
  <path d="M1057.98 477.99 c0 -2.98 7.60 -13.29 13.84 -18.85 13.16 -11.53 37.71 -21.30 37.71 -15.06 0 4.48 -18.72 20.21 -33.91 28.35 -8.68 4.75 -17.63 7.46 -17.63 5.56z"/>
  <path d="M107.15 415.73 c0 -1.76 11.39 -23.19 18.45 -34.72 12.61 -21.02 31.06 -43.27 35.54 -43.27 5.02 0 -6.10 24.41 -19.13 42.05 -12.75 17.23 -34.86 40.01 -34.86 35.94z"/>
  <path d="M871.34 282.40 c-1.09 -0.68 0.95 -4.61 6.38 -11.80 16.01 -21.84 35.94 -66.73 39.06 -87.49 l0.81 -6.10 82.74 -0.27 82.74 -0.27 -4.07 2.85 c-2.17 1.63 -9.90 8.68 -16.95 15.87 -29.16 29.30 -48.02 59.27 -50.05 79.48 l-0.81 8.14 -69.18 0.27 c-37.98 0.27 -69.85 -0.14 -70.67 -0.68z"/>
  <path d="M1032.21 282.40 c-0.81 -0.27 2.03 -4.20 6.24 -8.82 12.48 -13.70 39.74 -56.56 56.43 -88.57 l4.34 -8.27 196 -0.81 c107.83 -0.54 225.70 -0.95 261.78 -0.95 l65.65 0 -18.85 19.40 c-29.70 30.38 -48.02 59.27 -49.10 77.59 l-0.54 8.55 -16.55 0.95 c-16.55 0.81 -502.81 1.76 -505.39 0.95z"/>
  <path d="M860.49 271.01 c1.36 -6.92 12.75 -28.62 27.13 -51.54 17.63 -28.48 19.80 -28.76 8.27 -1.49 -9.63 22.79 -30.79 57.38 -34.86 57.38 -0.81 0 -1.09 -1.76 -0.54 -4.34z"/>
  <path d="M1021.90 271.14 c1.22 -6.10 7.87 -19.53 15.46 -31.20 11.66 -17.90 36.22 -45.57 39.47 -44.49 1.63 0.54 -22.79 41.10 -34.72 57.92 -7.32 10.44 -17.77 21.97 -19.80 21.97 -0.68 0 -0.95 -1.76 -0.41 -4.20z"/>
  <path d="M1565.27 266.39 c5.15 -13.43 14.78 -29.70 26.45 -44.63 13.97 -17.77 25.50 -29.57 28.21 -29.03 2.17 0.41 1.09 2.85 -7.46 15.46 -23.60 35.40 -43.81 61.72 -47.34 61.72 -0.68 0 -0.54 -1.63 0.14 -3.53z"/>
  <path d="M29.70 164.12 c10.72 -9.77 41.51 -28.08 45.03 -26.86 0.68 0.27 -1.22 3.66 -4.07 7.60 -5.70 7.46 -7.60 13.70 -6.65 20.62 l0.68 4.07 -20.48 0 -20.48 -0.14 5.97 -5.29z"/>
  <path d="M89.52 168.87 c0 -1.22 12.07 -8.82 14.11 -8.82 1.22 0 2.17 1.09 2.17 2.58 0 1.49 0.41 3.53 0.81 4.75 0.68 1.90 -0.54 2.17 -8.14 2.17 -4.88 0 -8.95 -0.27 -8.95 -0.68z"/>
  <path d="M221.23 167.38 c0.95 -1.22 5.15 -3.80 9.22 -5.97 4.20 -2.03 13.29 -7.46 20.21 -12.07 15.46 -10.17 17.09 -10.58 13.16 -2.98 -3.26 6.38 -4.88 15.87 -3.39 19.80 l1.36 3.39 -21.16 0 c-19.26 0 -21.02 -0.27 -19.40 -2.17z"/>
  <path d="M292.03 159.78 c5.43 -5.43 11.94 -13.70 14.51 -18.31 3.93 -6.92 5.43 -8.41 8.27 -8.55 5.70 0 16.01 -3.66 21.70 -7.60 5.97 -4.07 6.10 -4.34 3.39 -8 -1.76 -2.44 -2.03 -2.44 -10.17 1.22 -9.49 4.20 -12.89 4.20 -13.43 -0.27 -0.54 -3.39 -4.88 -6.24 -7.73 -5.15 -1.09 0.41 -2.58 3.26 -3.39 6.51 -4.61 16.82 -24.14 41.78 -32.69 41.78 -4.20 0 -3.12 -3.80 6.10 -22.65 7.73 -15.33 10.31 -19.26 20.75 -30.38 31.60 -33.64 57.38 -76.36 57.38 -94.81 l0 -5.02 119.09 -0.81 c65.38 -0.54 211.05 -0.95 323.50 -0.95 l204.54 0 -7.60 9.63 c-11.66 14.38 -27.13 39.61 -44.22 71.62 -13.97 26.18 -16.28 29.84 -24.01 36.89 -17.77 16.28 -44.22 31.88 -64.29 37.98 -5.70 1.76 -9.22 3.53 -9.22 4.75 0 1.63 -6.38 1.90 -38.66 1.90 -21.30 0 -38.66 -0.27 -38.66 -0.54 0 -0.27 5.29 -3.39 11.80 -6.92 15.33 -8.14 30.79 -19.26 43.68 -31.47 10.04 -9.63 10.17 -9.77 7.73 -12.48 -1.49 -1.63 -3.12 -2.85 -3.80 -2.85 -0.68 0 -6.24 4.48 -12.48 9.90 -20.35 17.77 -41.23 30.52 -57.65 35.40 -9.77 2.85 -13.29 2.71 -15.06 -0.54 -1.22 -2.17 -0.81 -3.12 2.31 -5.70 7.19 -5.83 16.82 -16.55 20.21 -22.24 6.65 -11.39 2.17 -22.92 -7.46 -19.40 -8.27 3.12 -19.53 18.04 -23.33 30.79 -2.03 6.92 -2.44 7.19 -12.89 11.53 -11.39 4.61 -20.21 6.51 -34.72 7.46 -11.80 0.95 -12.61 1.22 -13.02 4.07 l-0.41 2.98 -34.59 0 c-18.99 0 -34.45 -0.27 -34.45 -0.54 0 -0.27 4.75 -3.26 10.58 -6.51 13.29 -7.87 23.87 -16.01 37.98 -29.70 11.26 -10.85 12.48 -12.89 9.49 -15.87 -2.98 -2.98 -5.83 -1.63 -13.97 6.65 -17.77 18.04 -49.24 39.20 -58.46 39.20 -4.20 0 -1.22 -7.32 12.34 -30.52 10.31 -17.77 35.27 -61.58 37.84 -66.87 1.90 -3.66 2.03 -4.88 0.68 -6.51 -4.07 -4.88 -7.05 -1.63 -20.21 21.30 -20.75 36.08 -17.90 32.55 -24.69 31.60 -6.92 -0.95 -17.50 2.31 -35.81 10.85 -18.45 8.82 -34.99 20.21 -49.24 34.32 l-12.75 12.61 -33.10 0 c-20.48 0 -32.82 -0.54 -32.28 -1.22 0.41 -0.81 5.15 -3.53 10.58 -6.38 5.29 -2.71 14.92 -8.55 21.30 -12.89 12.61 -8.55 32.55 -25.09 32.55 -26.99 0 -1.63 -3.93 -5.43 -5.70 -5.43 -0.81 0 -6.38 4.20 -12.48 9.22 -22.92 19.53 -46.39 32.69 -63.34 35.67 -8.27 1.49 -9.77 1.36 -11.66 -0.41 -1.90 -2.03 -1.76 -2.85 1.22 -9.49 5.56 -11.94 20.75 -26.86 27.40 -26.86 1.63 0 1.76 0.68 0.54 4.07 -1.76 5.02 -0.68 8.14 2.85 8.14 3.93 0 8.27 -6.38 8.27 -12.21 0 -6.38 -3.66 -10.04 -10.17 -9.77 -11.66 0.41 -45.85 15.33 -66.19 28.76 -5.83 3.93 -15.06 11.26 -20.35 16.41 l-9.77 9.36 -32.15 0 -32.28 0 9.90 -9.77z"/>
  <path d="M362.15 167.51 c5.83 -7.05 41.64 -30.52 46.52 -30.52 2.58 0 3.12 2.03 0.81 3.53 -2.58 1.49 -8 14.65 -8 19.26 0 2.44 0.68 5.70 1.36 7.19 1.36 2.44 0.81 2.58 -20.48 2.58 -19.13 0 -21.70 -0.27 -20.21 -2.03z"/>
  <path d="M522.21 168.33 c0 -1.90 16.95 -17.23 25.64 -23.19 10.72 -7.19 13.56 -7.19 8.82 -0.14 -4.34 6.65 -7.19 16.14 -6.38 20.89 l0.68 3.66 -14.38 0 c-7.87 0 -14.38 -0.54 -14.38 -1.22z"/>
  <path d="M577.14 163.44 c3.80 -3.39 7.46 -6.10 8.14 -6.10 0.81 0 1.36 2.71 1.36 6.10 l0 6.10 -8.14 0 -8.14 -0.14 6.78 -5.97z"/>
  <path d="M727.70 168.19 c0.81 -1.36 9.49 -5.43 11.53 -5.43 0.54 0 1.63 1.49 2.44 3.39 l1.63 3.39 -8.27 0 c-5.15 0 -7.87 -0.54 -7.32 -1.36z"/>
  <path d="M880.29 167.51 c0.95 -1.09 2.44 -2.03 3.26 -2.03 0.81 0 8.82 -4.34 17.63 -9.63 8.82 -5.15 16.55 -9.36 17.23 -9.09 0.54 0.27 -1.63 5.43 -5.02 11.66 l-6.10 11.12 -14.38 0 c-12.61 0 -14.11 -0.27 -12.61 -2.03z"/>
  <path d="M942.69 167.65 c1.09 -0.95 4.75 -3.26 8.14 -5.02 13.43 -7.19 44.76 -34.72 44.76 -39.34 0 -1.36 -1.09 -2.98 -2.31 -3.80 -1.90 -0.95 -4.20 0.54 -11.94 7.60 -18.99 17.63 -43 33.37 -55.48 36.49 -5.15 1.22 -5.02 1.09 8.41 -21.57 6.92 -11.80 13.84 -21.43 20.62 -28.76 15.87 -16.95 28.76 -32.82 37.03 -45.57 16.41 -25.23 26.18 -46.93 24.96 -55.75 l-0.68 -5.15 159.92 0 159.92 0 -6.65 8.55 c-10.44 13.29 -23.60 35.67 -38.39 65.65 l-13.43 27.40 -10.85 9.63 c-17.63 15.46 -49.37 35.81 -65.92 42.18 -6.10 2.31 -8.55 3.93 -8.82 5.97 -0.41 2.58 -1.49 2.71 -40.83 3.12 -27.81 0.14 -40.15 -0.14 -39.61 -1.09 0.54 -0.81 5.83 -3.93 11.94 -6.92 19.67 -9.90 39.47 -23.60 54.26 -37.71 7.05 -6.78 7.73 -8.82 3.53 -10.99 -3.26 -1.76 -3.39 -1.76 -17.63 10.72 -14.78 12.89 -46.12 32.96 -48.29 30.79 -0.41 -0.41 2.85 -6.10 7.32 -12.61 13.43 -19.67 15.60 -25.91 9.77 -28.89 -7.46 -4.07 -39.06 2.58 -59.55 12.61 -22.38 10.99 -51.14 32.69 -54.39 41.23 l-1.22 3.12 -38.25 0 c-32.42 0 -37.98 -0.27 -36.35 -1.90z"/>
  <path d="M1029.49 168.33 c0 -4.61 38.25 -32.69 44.63 -32.69 2.98 0 3.12 0.14 0.95 3.12 -9.49 13.02 -12.21 21.97 -8.95 28.21 1.36 2.44 0.81 2.58 -17.63 2.58 -10.44 0 -18.99 -0.54 -18.99 -1.22z"/>
  <path d="M1085.11 168.33 c0 -2.17 6.92 -6.92 9.90 -6.92 2.58 0 2.44 0.27 -1.09 4.07 -3.66 3.93 -8.82 5.56 -8.82 2.85z"/>
  <path d="M1209.22 168.33 c0.41 -0.68 5.70 -4.07 11.94 -7.32 6.10 -3.39 17.09 -10.17 24.41 -15.06 11.94 -8 17.23 -10.58 17.23 -8.14 0 0.54 -2.98 6.24 -6.78 12.75 -3.66 6.51 -6.78 13.02 -6.78 14.65 0 1.49 -0.95 3.12 -2.17 3.53 -3.53 1.36 -38.79 0.95 -37.84 -0.41z"/>
  <path d="M1259.67 168.73 c-1.09 -1.09 4.07 -8.27 11.80 -16.68 15.60 -16.55 42.86 -33.77 42.86 -26.99 0 0.81 -3.53 7.73 -7.73 15.19 -7.60 13.16 -9.36 20.07 -7.19 26.31 0.54 1.36 -3.53 1.90 -19.13 2.44 -10.85 0.27 -20.07 0.14 -20.62 -0.27z"/>
  <path d="M1328.71 166.97 c0.68 -0.81 4.88 -3.26 9.36 -5.56 18.18 -9.63 50.86 -37.98 49.10 -42.59 -2.03 -5.02 -5.15 -3.66 -17.50 7.32 -21.43 18.99 -42.59 32.42 -55.07 34.72 -8.14 1.49 -7.87 -0.68 1.63 -18.99 4.88 -9.36 8.95 -18.58 8.95 -20.35 0 -5.15 -6.24 -9.36 -12.07 -8.27 -6.51 1.22 -18.31 7.46 -27.94 14.65 -4.48 3.39 -8.27 5.97 -8.55 5.70 -0.27 -0.14 1.76 -4.75 4.34 -10.04 3.26 -6.51 9.22 -14.24 18.18 -23.87 30.25 -32.96 50.05 -65.51 51.54 -85.05 l0.54 -7.87 267.07 0 266.94 0 -9.22 11.53 c-12.48 15.60 -23.60 33.77 -39.20 63.89 l-13.16 25.64 -12.21 9.90 c-14.24 11.53 -41.51 29.98 -56.97 38.52 -7.87 4.34 -10.99 6.78 -11.26 8.95 l-0.41 2.98 -46.12 0 c-26.45 0 -45.98 -0.54 -45.98 -1.22 0 -0.68 8.55 -5.56 18.99 -10.99 20.62 -10.58 42.86 -24.82 53.58 -34.32 5.83 -5.29 6.51 -6.38 4.88 -8.27 -3.12 -3.66 -6.38 -2.44 -18.04 6.38 -16.82 12.89 -47.88 31.88 -49.51 30.25 -0.54 -0.41 4.20 -8.27 10.17 -17.50 6.10 -9.09 11.12 -17.36 11.12 -18.31 0 -1.36 -4.07 -4.34 -5.83 -4.34 -0.41 0 -5.97 4.61 -12.48 10.17 -14.65 12.48 -33.23 24.96 -47.47 31.88 -11.53 5.56 -28.48 10.85 -34.99 10.85 -2.71 0 -4.07 0.81 -4.61 2.71 -0.68 2.58 -1.90 2.71 -40.69 2.71 -23.87 0 -39.61 -0.54 -39.20 -1.22 0.54 -0.68 6.51 -4.34 13.56 -8.14 13.43 -7.19 34.72 -22.52 46.25 -33.10 5.70 -5.29 6.51 -6.51 5.29 -8.68 -2.71 -4.48 -5.83 -3.39 -16.55 5.70 -23.74 20.62 -63.89 43 -67.14 37.71 -0.95 -1.63 3.93 -10.99 13.84 -26.18 10.44 -16.28 11.53 -18.31 10.58 -20.89 -1.90 -4.75 -7.73 -2.44 -17.90 7.05 -20.07 18.72 -49.37 35.67 -70.13 40.42 -8.41 1.90 -10.58 2.98 -10.58 4.88 0 2.31 -2.31 2.44 -38.25 2.44 -24.01 0 -37.71 -0.54 -36.89 -1.22z m186.91 -81.93 c3.39 -2.44 2.44 -8.27 -1.49 -8.82 -4.07 -0.54 -8.27 5.56 -5.83 8.55 2.03 2.44 4.20 2.58 7.32 0.27z m183.38 0.68 c0.81 -0.54 2.17 -2.31 2.98 -3.80 1.22 -2.44 1.09 -3.39 -0.95 -5.29 -3.12 -2.71 -7.60 -0.95 -8.95 3.39 -1.49 4.61 2.98 8.41 6.92 5.70z"/>
  <path d="M1429.90 167.51 c0.41 -0.41 5.83 -3.26 12.07 -6.24 6.24 -2.98 15.33 -8.14 20.35 -11.53 5.02 -3.26 9.77 -5.97 10.58 -5.97 0.95 0 0 2.98 -2.03 7.05 -2.03 3.93 -3.66 9.36 -3.66 12.21 l0 5.15 -18.99 0 c-10.44 0 -18.72 -0.27 -18.31 -0.68z"/>
  <path d="M1609.35 166.84 c0.54 -0.81 5.83 -3.93 11.80 -6.92 5.97 -2.98 14.11 -7.60 18.04 -10.31 3.93 -2.58 8.41 -4.48 9.90 -4.20 2.44 0.41 2.17 1.22 -2.98 8.95 -8.14 12.21 -11.12 13.84 -25.64 13.84 -7.87 0 -11.66 -0.54 -11.12 -1.36z"/>
  <path d="M1757.19 166.84 c0.41 -0.68 3.66 -2.98 7.19 -5.02 8 -4.61 28.89 -18.31 37.03 -24.28 10.85 -8 11.26 -6.24 2.44 10.72 -4.34 8.27 -8 16.28 -8 17.63 0 2.03 -1.90 2.31 -19.80 2.31 -12.61 0 -19.40 -0.54 -18.85 -1.36z"/>
  <path d="M1806.70 167.11 c0 -2.58 8.95 -13.43 19.53 -23.60 12.34 -11.94 18.72 -16.82 24.28 -18.04 5.29 -1.36 4.88 1.76 -2.31 14.11 -7.73 13.43 -9.63 19.40 -7.73 24.55 l1.36 4.07 -17.63 0 c-9.63 0 -17.50 -0.54 -17.50 -1.09z"/>
  <path d="M75.28 158.56 c3.12 -9.77 16.28 -23.06 29.57 -29.70 8.27 -4.07 17.23 -5.43 17.23 -2.44 0 2.58 -20.62 21.70 -29.98 27.81 -4.88 3.26 -10.85 6.24 -13.29 6.65 -4.34 0.95 -4.48 0.81 -3.53 -2.31z"/>
  <path d="M560.73 157.88 c2.31 -8.82 16.68 -25.91 27.13 -31.88 6.24 -3.53 14.38 -5.29 14.38 -2.98 0 3.93 -21.70 26.31 -33.23 34.32 -7.32 5.02 -9.36 5.29 -8.27 0.54z"/>
  <path d="M1075.61 156.93 c0 -3.12 7.60 -13.84 14.24 -20.21 9.90 -9.49 28.89 -18.72 33.23 -16.01 3.53 2.17 -19.26 23.06 -36.08 33.23 -8.41 5.02 -11.39 5.83 -11.39 2.98z"/>
  <path d="M963.03 89.11 c0 -3.39 34.86 -60.77 38.25 -62.80 4.75 -2.98 0.81 6.51 -10.72 25.50 -11.53 19.26 -27.53 40.96 -27.53 37.30z"/>
  <path d="M307.90 81.52 c0 -2.71 17.77 -35.13 26.72 -48.56 6.78 -10.44 9.90 -13.43 9.90 -9.77 0 3.26 -11.53 24.28 -21.02 38.52 -12.34 18.31 -15.46 22.38 -15.60 19.80z"/>
  <path d="M1304.16 76.77 c0.95 -3.39 16.95 -31.33 24.55 -43.13 3.26 -5.15 6.78 -9.22 8 -9.22 2.71 0 2.71 0 -2.85 11.26 -8 15.87 -32.55 49.78 -29.70 41.10z"/>
  <path d="M1850.11 78.13 c0 -1.63 10.58 -19.40 22.11 -37.03 7.32 -11.26 11.80 -16.68 13.43 -16.68 1.36 0 2.44 0.41 2.44 1.09 0 2.31 -12.61 22.79 -20.75 33.91 -8.55 11.39 -17.23 20.89 -17.23 18.72z"/>
 </g>
</svg>